<svg width="4011" height="595" viewBox="0 0 4011 595" fill="none" xmlns="http://www.w3.org/2000/svg">
<mask id="mask0_1_1416" style="mask-type:luminance" maskUnits="userSpaceOnUse" x="0" y="51" width="4011" height="544">
<path d="M4011 51.0886H9.15527e-05V594.748H4011V51.0886Z" fill="white"/>
</mask>
<g mask="url(#mask0_1_1416)">
<mask id="mask1_1_1416" style="mask-type:luminance" maskUnits="userSpaceOnUse" x="0" y="51" width="4011" height="544">
<path fill-rule="evenodd" clip-rule="evenodd" d="M4011 119.78C3487.69 158.846 2991.75 293.623 2476.38 295.13C1602.31 297.615 854.916 41.5734 9.15527e-05 51.6947V594.748H4011V119.78Z" fill="white"/>
</mask>
<g mask="url(#mask1_1_1416)">
<path d="M4011 594.748H9.15527e-05V41.5735H4011V594.748Z" fill="url(#paint0_linear_1_1416)"/>
</g>
</g>
<mask id="mask2_1_1416" style="mask-type:luminance" maskUnits="userSpaceOnUse" x="0" y="0" width="4011" height="518">
<path d="M4011 0H9.15527e-05V517.633H4011V0Z" fill="white"/>
</mask>
<g mask="url(#mask2_1_1416)">
<mask id="mask3_1_1416" style="mask-type:luminance" maskUnits="userSpaceOnUse" x="0" y="0" width="4011" height="518">
<path fill-rule="evenodd" clip-rule="evenodd" d="M84.6071 220.123C86.6962 210.454 87.6673 200.788 86.2066 189.357C78.2053 193.404 71.0282 200.269 65.0426 210.917C63.998 203.861 61.7621 198.175 58.2858 193.992C53.0631 198.695 48.3301 203.989 44.4253 210.33C40.6022 196.477 34.2615 187.523 26.5296 181.19C21.7272 187.399 17.4756 194.184 15.0397 202.946C13.0241 196.018 10.5188 190.068 7.38525 185.106C4.80657 185.569 2.29724 186.416 9.15527e-05 187.455V230.911C129.106 250.371 294.484 272.195 411.545 290.886C397.477 276.446 369.556 262.529 353.68 255.925C349.502 255.277 343.859 258.218 340.383 262.265C339.338 255.213 337.102 249.523 333.622 245.34C328.399 250.043 323.67 255.405 319.761 261.678C315.938 247.829 309.524 238.871 301.87 232.538C297.063 238.747 292.812 245.543 290.38 254.294C288.364 247.434 285.859 241.428 282.725 236.461C277.29 237.504 272.415 239.854 268.163 243.518C264.895 229.206 258.762 218.293 250.059 210.522C248.525 221.038 249.088 231.499 251.389 242.015C247.762 234.756 243.931 227.835 238.99 222.285C235.154 228.682 232.722 235.546 232.021 242.93C227.006 235.738 221.306 230.38 215.039 226.468C211.338 230.843 208.49 235.671 206.475 241.033C204.52 230.516 201.04 221.761 196.299 214.445C190.66 221.63 186.269 229.145 182.793 236.985C186.135 215.296 185.225 198.695 181.406 185.633C173.319 198.243 166.289 211.768 162.319 228.027C159.605 219.084 156.051 211.633 151.114 206.598C147.144 212.615 145.68 220.451 144.908 228.618C138.641 218.429 131.684 210.718 123.957 205.627C121.508 212.875 121.374 221.298 123.536 230.708C116.779 218.881 108.631 210.454 99.3652 204.904C96.9334 211.825 97.423 219.931 100.483 229.145C95.6073 225.29 90.246 222.409 84.6071 220.123ZM1092.92 386.334C1085.76 377.256 1067.3 372.35 1049.2 372.35C1051.08 359.615 1044.19 350.401 1042.37 349.55C1039.24 354.257 1036.94 359.355 1035.55 364.838C1032.41 354.585 1027.95 346.218 1022.46 339.422C1017.58 347.133 1014.17 355.037 1011.52 363.143C1012.43 341.252 1009.72 324.857 1004.42 312.179C997.809 325.512 992.305 339.749 990.142 356.279C986.454 347.596 982.068 340.596 976.637 336.097C973.295 342.494 972.801 350.334 972.948 358.565C965.563 349.031 957.762 342.042 949.552 337.723C947.88 345.243 948.716 353.598 951.85 362.748C943.84 351.644 934.856 344.068 924.965 339.422C923.366 346.546 924.692 354.585 928.796 363.471C912.712 346.35 884.375 356.607 872.6 363.008C950.107 379.142 985.829 384.572 1092.92 386.334ZM3613.31 296.892C3633.65 284.94 3649.94 271.155 3664.22 265.014C3668.39 264.291 3674.03 267.164 3677.59 271.212C3678.56 264.099 3680.72 258.41 3684.13 254.162C3689.42 258.865 3694.23 264.156 3698.2 270.365C3701.89 256.512 3708.09 247.434 3715.74 241.033C3720.62 247.238 3724.94 253.967 3727.52 262.661C3729.39 255.8 3731.83 249.783 3734.9 244.753C3740.4 245.735 3745.2 248.021 3749.52 251.685C3752.65 237.38 3758.64 226.333 3767.21 218.429C3768.95 228.946 3768.53 239.462 3766.37 249.987C3769.85 242.659 3773.61 235.738 3778.49 230.12C3782.39 236.461 3784.89 243.318 3785.66 250.698C3790.6 243.45 3796.32 238.024 3802.51 234.044C3806.2 238.352 3809.13 243.19 3811.22 248.484C3813.03 237.956 3816.44 229.206 3821.1 221.822C3826.67 228.75 3831.06 236.066 3834.54 243.646H3834.75C3831.2 222.217 3831.97 205.819 3835.59 192.817C3843.88 205.356 3851.05 218.824 3855.23 235.083C3857.8 226.005 3861.29 218.561 3866.16 213.53C3869.5 218.429 3871.1 224.499 3872.08 231.103L3876.32 229.669C3881.48 222.217 3887.12 216.335 3893.25 212.152C3894.85 216.731 3895.55 221.694 3895.33 227.112L3901.05 226.592C3906.06 220.056 3911.7 214.969 3917.83 211.237C3919.36 215.353 3919.85 219.931 3919.36 224.894C3948.96 222.149 3981.48 218.034 4011 213.982V241.1L3963.44 248.608L3863.58 272.782L3776.61 297.671L3772.15 299.049L3694.09 303.225H3689.63L3604.12 323.938L3502.45 332.241L3576.13 303.225L3613.31 296.892ZM2948.01 448.595C2955.26 439.584 2973.71 434.618 2991.75 434.678C2989.94 421.876 2996.76 412.73 2998.57 411.811C3001.77 416.518 3004 421.684 3005.46 427.166C3008.53 416.913 3012.98 408.542 3018.56 401.75C3023.36 409.393 3026.84 417.365 3029.42 425.472C3028.51 403.512 3031.3 387.118 3036.52 374.507C3043.21 387.84 3048.64 402.017 3050.8 418.607C3054.49 409.924 3058.88 402.868 3064.31 398.357C3067.65 404.755 3068.2 412.662 3068.07 420.893C3075.45 411.359 3083.18 404.359 3091.47 400.052C3093.07 407.503 3092.23 415.862 3089.1 425.076C3097.1 413.972 3106.16 406.328 3115.98 401.75C3117.65 408.874 3116.25 416.913 3112.15 425.731C3128.3 408.61 3156.64 418.935 3168.34 425.268C3090.84 441.414 3055.18 446.9 2948.01 448.595ZM3152.46 457.022C3177.05 443.756 3196.2 426.838 3212.77 419.718C3217.16 418.935 3223.08 421.943 3226.83 426.183C3227.81 418.743 3230.11 412.794 3233.66 408.35C3239.23 413.249 3244.24 418.799 3248.49 425.336C3252.32 410.772 3258.87 401.294 3266.88 394.565C3272.03 401.034 3276.56 408.091 3279.2 417.297C3281.22 410.049 3283.8 403.715 3287 398.489C3292.71 399.464 3297.86 401.885 3302.32 405.673C3305.66 390.646 3311.93 379.086 3320.91 370.855C3322.72 381.891 3322.24 392.871 3320.01 403.907C3323.63 396.264 3327.6 388.948 3332.75 383.066C3336.79 389.727 3339.51 396.919 3340.27 404.63C3345.49 397.043 3351.41 391.425 3357.96 387.185C3361.86 391.753 3364.92 396.783 3367.08 402.337C3368.96 391.301 3372.58 382.083 3377.46 374.383C3383.44 381.823 3388.11 389.727 3391.87 397.894C3388.11 375.095 3388.81 357.65 3392.71 343.933C3401.34 357.062 3408.86 371.239 3413.25 388.292C3416.03 378.758 3419.66 370.911 3424.74 365.621C3429.06 371.894 3430.66 380.061 3431.56 388.688C3438.04 377.843 3445.21 369.68 3453.22 364.25C3455.94 371.894 3456.15 380.649 3454.06 390.578C3460.95 378.103 3469.38 369.149 3479.06 363.211C3481.7 370.46 3481.35 379.018 3478.22 388.688C3492.77 369.021 3528.7 370.855 3560.6 374.112C3481.91 399.792 3263.95 442.909 3152.46 457.022ZM2718.84 512.621C2709.65 507.53 2700.53 505.96 2691.62 507.067C2687.58 503.471 2681.87 500.271 2674.63 497.401C2662.38 494.528 2650.05 494.72 2637.78 496.686C2643.99 487.8 2652.2 485.311 2662.85 490.477C2662.85 478.255 2665.02 469.312 2668.01 461.465C2676.43 466.427 2680.76 475.122 2677.62 490.477C2682.64 479.569 2690.22 472.637 2698.93 467.674C2697.68 476.425 2695.1 485.638 2689.39 496.031C2696.7 489.63 2704.92 486.294 2714.46 487.009C2713.62 493.35 2709.38 497.989 2701.92 500.862C2711.6 501.189 2717.03 505.305 2718.84 512.621ZM2577.41 441.934C2567.32 438.534 2558.13 438.665 2549.49 441.414C2544.82 438.601 2538.55 436.508 2530.9 434.945C2518.23 434.29 2506.25 436.768 2494.62 440.883C2498.86 431.09 2506.46 427.098 2517.95 430.299C2515.44 418.28 2515.72 409.066 2517.04 400.842C2526.3 404.235 2532.36 411.946 2532.36 427.622C2535.15 415.994 2541.14 407.831 2548.73 401.362C2549.28 410.184 2548.58 419.718 2545.11 430.954C2550.95 423.31 2558.34 418.607 2567.87 417.625C2568.29 423.965 2565.09 429.26 2558.4 433.443C2567.95 432.065 2574.14 435.141 2577.41 441.934ZM2628.6 478.255C2622.06 476.04 2616.06 476.108 2610.49 477.859C2607.43 476.04 2603.39 474.662 2598.38 473.687C2590.16 473.292 2582.36 474.862 2574.77 477.543C2577.56 471.134 2582.42 468.589 2589.95 470.611C2588.28 462.843 2588.48 456.83 2589.32 451.468C2595.38 453.697 2599.28 458.727 2599.35 468.916C2601.09 461.34 2604.99 456.046 2609.94 451.863C2610.28 457.609 2609.87 463.818 2607.57 471.074C2611.4 466.111 2616.21 463.035 2622.4 462.38C2622.68 466.563 2620.66 469.956 2616.27 472.704C2622.48 471.789 2626.51 473.811 2628.6 478.255ZM3521.39 306.889C3517.21 305.518 3513.46 304.603 3506.35 303.553C3498.07 303.169 3490.27 304.795 3482.68 307.476C3485.46 301.075 3490.41 298.462 3497.86 300.555C3496.25 292.708 3496.46 286.759 3497.3 281.412C3503.36 283.626 3507.26 288.661 3507.26 298.85C3509.07 291.274 3512.97 285.912 3517.91 281.74C3523.13 288.073 3522.71 300.748 3521.39 306.889ZM3375.44 319.371C3371.26 317.993 3367.57 317.078 3360.4 316.035C3352.18 315.64 3344.38 317.21 3336.79 319.891C3339.57 313.49 3344.45 310.937 3351.97 312.962C3350.3 305.191 3350.51 299.177 3351.41 293.827C3357.4 296.045 3361.3 301.075 3361.37 311.264C3363.18 303.688 3367.01 298.394 3371.95 294.211C3377.18 300.555 3376.83 313.162 3375.44 319.371ZM3469.17 328.517C3459.07 325.185 3449.81 325.309 3441.24 327.99C3436.58 325.185 3430.31 323.091 3422.65 321.521C3409.98 320.934 3398 323.351 3386.3 327.467C3390.62 317.665 3398.14 313.685 3409.63 316.882C3407.19 304.863 3407.47 295.649 3408.8 287.418C3418.05 290.886 3424.04 298.59 3424.11 314.205C3426.9 302.577 3432.88 294.414 3440.41 288.006C3440.96 296.824 3440.27 306.365 3436.85 317.541C3442.71 309.961 3450.09 305.191 3459.56 304.208C3460.04 310.609 3456.84 315.843 3450.09 320.015C3459.7 318.648 3465.82 321.724 3469.17 328.517ZM2638.07 330.859L2632.71 330.543C2633.61 333.743 2634.1 337.531 2634.1 341.907C2635.07 337.791 2636.4 334.195 2638.07 330.859ZM2665.64 332.501L2649.84 331.582C2649.27 335.833 2648.3 340.404 2646.77 345.175C2651.86 338.638 2657.99 334.263 2665.64 332.501ZM2576.58 354.653C2572.4 353.214 2568.64 352.299 2561.53 351.316C2553.32 350.921 2545.45 352.491 2537.87 355.172C2540.72 348.771 2545.6 346.218 2553.04 348.24C2551.45 340.472 2551.66 334.455 2552.49 329.108C2558.55 331.322 2562.44 336.357 2562.52 346.546C2564.25 338.966 2568.16 333.676 2573.1 329.492C2578.32 335.765 2577.9 348.443 2576.58 354.653ZM3663.31 223.787C3656.77 221.562 3650.78 221.694 3645.21 223.46C3642.14 221.63 3638.1 220.259 3633.09 219.208C3624.87 218.824 3617.07 220.383 3609.48 223.064C3612.27 216.731 3617.14 214.118 3624.66 216.211C3622.99 208.364 3623.2 202.415 3624.03 197.068C3630.09 199.282 3633.99 204.249 3634.06 214.445C3635.81 206.862 3639.7 201.568 3644.65 197.396C3645 203.138 3644.58 209.347 3642.28 216.595C3646.11 211.7 3650.91 208.568 3657.11 207.98C3657.39 212.096 3655.37 215.556 3650.98 218.233C3657.18 217.318 3661.22 219.344 3663.31 223.787ZM1556.63 517.46C1547.44 512.361 1538.39 510.799 1529.4 511.906C1525.36 508.313 1519.66 505.113 1512.41 502.24C1500.16 499.356 1487.83 499.559 1475.58 501.517C1481.77 492.695 1489.99 490.149 1500.65 495.308C1500.65 483.097 1502.87 474.139 1505.8 466.303C1514.23 471.266 1518.54 479.953 1515.41 495.308C1520.42 484.396 1528.01 477.475 1536.79 472.512C1535.46 481.263 1532.88 490.477 1527.18 500.862C1534.49 494.461 1542.7 491.125 1552.25 491.848C1551.41 498.181 1547.16 502.827 1539.71 505.7C1549.38 506.028 1554.82 510.211 1556.63 517.46ZM1215.49 433.635C1205.39 430.242 1196.2 430.367 1187.56 433.115C1182.9 430.299 1176.63 428.209 1168.97 426.646C1156.3 425.991 1144.32 428.48 1132.69 432.596C1136.94 422.791 1144.46 418.799 1156.01 422.011C1153.51 409.981 1153.79 400.775 1155.12 392.543C1164.37 395.936 1170.43 403.648 1170.43 419.33C1173.22 407.695 1179.2 399.532 1186.8 393.063C1187.29 401.885 1186.66 411.427 1183.17 422.655C1189.02 415.011 1196.4 410.308 1205.94 409.333C1206.36 415.667 1203.17 420.961 1196.48 425.144C1206.02 423.773 1212.21 426.838 1215.49 433.635ZM1266.67 469.956C1260.12 467.738 1254.14 467.806 1248.56 469.572C1245.5 467.738 1241.39 466.371 1236.44 465.388C1228.23 464.993 1220.43 466.563 1212.84 469.244C1215.63 462.843 1220.5 460.29 1228.03 462.312C1226.35 454.544 1226.56 448.527 1227.4 443.18C1233.46 445.394 1237.35 450.428 1237.43 460.618C1239.16 453.038 1243.07 447.748 1248.01 443.564C1248.35 449.318 1247.93 455.527 1245.64 462.775C1249.47 457.812 1254.27 454.736 1260.47 454.081C1260.75 458.264 1258.73 461.668 1254.35 464.405C1260.54 463.487 1264.58 465.524 1266.67 469.956ZM709.102 298.59C704.924 297.219 701.162 296.304 694.058 295.261C685.767 294.866 677.974 296.496 670.381 299.177C673.168 292.776 678.109 290.163 685.555 292.257C683.96 284.417 684.168 278.472 685.004 273.11C691.064 275.328 694.956 280.362 694.956 290.558C696.776 282.971 700.672 277.624 705.614 273.441C710.836 279.771 710.416 292.449 709.102 298.59ZM563.137 311.072C558.959 309.694 555.275 308.787 548.097 307.736C539.888 307.352 532.083 308.911 524.489 311.592C527.28 305.191 532.156 302.645 539.68 304.671C538.007 296.892 538.215 290.886 539.113 285.528C545.111 287.746 549.007 292.776 549.081 302.965C550.884 295.389 554.72 290.095 559.661 285.912C564.883 292.257 564.537 304.863 563.137 311.072ZM656.876 320.218C646.773 316.882 637.507 317.018 628.943 319.699C625.185 317.473 620.378 315.64 614.601 314.205C619.334 326.552 621.839 342.362 620.941 363.143C623.512 355.037 627 347.133 631.807 339.422C637.372 346.218 641.832 354.585 644.965 364.838C646.357 359.355 648.654 354.257 651.788 349.55C658.471 352.819 664.738 357.59 670.589 364.25C670.454 356.799 672.123 349.742 675.183 343.018C680.692 348.048 685.286 354.517 689.672 361.445C686.257 351.249 684.511 340.856 684.87 330.215C694.405 337.136 701.717 347.393 706.593 361.246C710.416 357.194 714.949 354.389 720.237 352.819C723.934 357.454 727.067 363.143 729.846 369.804C731.245 360.858 734.722 353.666 738.826 347.005C747.183 352.559 754.568 360.858 759.864 374.248C763.063 367.643 767.176 361.833 771.835 356.675C775.805 360.462 778.665 365.881 780.473 372.813C783.472 368.434 788.695 364.973 793.007 365.233C809.512 370.256 829.639 384.245 854.427 394.238C747.33 392.543 535.979 374.315 458.476 358.177C488.286 351.836 522.058 346.35 538.215 363.471C534.098 354.585 532.711 346.546 534.384 339.422C544.201 344.068 553.259 351.644 561.256 362.748C558.123 353.598 557.29 345.243 558.959 337.723C567.181 342.042 574.982 349.031 582.294 358.565C582.147 350.334 582.714 342.494 586.056 336.097C591.486 340.596 595.873 347.596 599.561 356.279C601.65 340.404 606.738 326.687 613.005 313.817C612.169 313.618 611.259 313.422 610.349 313.23C597.68 312.642 585.701 315.052 574.003 319.168C578.328 309.374 585.847 305.383 597.337 308.583C594.893 296.564 595.175 287.358 596.501 279.127C605.755 282.587 611.753 290.299 611.814 305.906C614.601 294.279 620.586 286.115 628.106 279.714C628.673 288.525 627.971 298.067 624.556 309.238C630.407 301.662 637.792 296.892 647.267 295.909C647.744 302.318 644.549 307.544 637.792 311.727C647.401 310.349 653.534 313.422 656.876 320.218ZM1317.15 347.924C1307.05 344.52 1297.86 344.655 1289.29 347.325C1284.64 344.588 1278.37 342.426 1270.7 340.924C1258.03 340.28 1246.05 342.69 1234.35 346.873C1238.68 337.012 1246.2 333.088 1257.69 336.221C1255.18 324.266 1255.53 315.052 1256.85 306.821C1266.11 310.221 1272.1 317.925 1272.17 333.608C1274.88 321.916 1280.88 313.817 1288.46 307.352C1289.03 316.159 1288.32 325.704 1284.85 336.876C1290.7 329.3 1298.14 324.53 1307.62 323.543C1308.1 329.955 1304.9 335.246 1298.14 339.422C1307.75 337.983 1313.89 341.06 1317.15 347.924ZM1202.88 337.328C1198.63 335.961 1194.94 335.042 1187.77 334.003C1179.56 333.608 1171.76 335.178 1164.16 337.859C1166.95 331.458 1171.89 328.905 1179.35 330.995C1177.74 323.159 1177.95 317.21 1178.79 311.852C1184.84 314.013 1188.75 319.043 1188.75 329.233C1190.56 321.657 1194.45 316.362 1199.4 312.179C1204.63 318.524 1204.21 331.13 1202.88 337.328ZM2234.46 318.456C2177.01 329.04 2136.48 279.906 2079.03 290.558C2008.29 283.175 1950.48 268.407 1879.74 261.023C1819.86 261.023 1746.87 268.407 1686.99 268.407C1728.21 280.362 1829.95 295.13 1871.17 307.149C1729.25 300.68 1585.88 298.79 1439.99 305.258C1354.76 288.853 1041.53 264.811 921.203 286.635C990.35 255.213 1073.78 259.848 1126.21 257.427C1124.83 252.792 1124.62 248.484 1125.66 244.425C1133.11 247.633 1140.07 252.6 1146.27 259.78L1147.81 259.984C1145.99 253.775 1145.64 248.021 1146.97 242.795C1154.07 246.131 1160.76 251.617 1167.02 259.193C1166.95 252.6 1167.5 246.323 1170.5 241.168C1175.17 244.696 1178.86 250.246 1181.99 257.167C1184.01 243.906 1188.88 232.474 1194.81 221.761C1199.26 231.758 1201.49 244.82 1200.45 262.393C1202.81 255.868 1205.88 249.456 1210.12 243.318C1214.86 248.676 1218.69 255.277 1221.27 263.444C1222.52 259.069 1224.53 254.949 1227.32 251.161C1233.1 253.707 1238.53 257.427 1243.48 262.661C1243.41 256.715 1244.95 251.094 1247.66 245.611C1252.39 249.591 1256.36 254.75 1260.05 260.176C1257.2 252.08 1255.81 243.777 1256.23 235.287C1264.44 240.705 1270.64 248.812 1274.74 259.848C1278.09 256.58 1282.06 254.226 1286.65 252.927C1289.79 256.58 1292.5 261.158 1294.8 266.385C1296.13 259.261 1299.19 253.447 1302.81 248.089C1310.05 252.396 1316.32 258.933 1320.78 269.585C1323.63 264.223 1327.26 259.588 1331.36 255.405C1334.7 258.41 1337.13 262.721 1338.67 268.215C1342.92 259.193 1348.49 253.119 1355.04 249.196C1358.73 255.8 1359.28 264.359 1356.08 275.531H1386.09C1439.57 280.821 1490.62 285.98 1534.91 291.078C1520.14 277.297 1491.52 264.687 1475.37 258.741C1471.12 258.278 1465.61 261.418 1462.34 265.662C1460.96 258.673 1458.45 253.052 1454.75 249.072C1450.51 253.255 1446.6 257.958 1443.33 263.308L1440.54 262.597C1436.02 250.834 1429.76 243.122 1422.37 237.64C1418.61 242.987 1415.27 248.744 1413.12 255.665L1410.12 254.949C1408.24 250.179 1406.01 245.995 1403.51 242.399C1398.28 243.646 1393.69 246.131 1389.72 249.783L1389.15 249.659C1385.12 235.738 1378.57 225.222 1369.59 217.906C1368.68 227.055 1369.38 236.134 1371.4 245.148L1369.8 244.753C1366.59 239.334 1363.11 234.372 1359.07 230.188C1357.05 234.044 1355.46 238.024 1354.48 242.207L1344.45 241.88C1341.52 239.334 1338.53 237.245 1335.33 235.411C1333.87 237.38 1332.54 239.402 1331.43 241.496L1324.88 241.225C1322.58 234.823 1319.59 229.206 1316.04 224.239C1312.21 229.601 1309.14 235.083 1306.57 240.705L1304.28 240.637C1305.59 222.089 1303.71 207.653 1299.74 196.085C1292.29 209.019 1285.95 222.94 1282.82 239.334C1279.62 230.448 1275.65 223.2 1270.57 218.429C1267.02 224.307 1265.9 231.623 1265.48 239.402H1264.51C1258.03 230.12 1250.93 223.132 1243.33 218.621C1241.67 224.634 1241.53 231.363 1242.99 238.679L1240.7 238.611C1234.15 229.793 1226.83 223.324 1218.76 219.016C1217.09 224.634 1217.3 230.968 1219.31 237.956L1211.79 237.696C1209.49 236.657 1207.14 235.738 1204.76 234.891C1206.36 225.09 1206.85 215.353 1204.83 204.057C1197.03 208.432 1190.21 215.624 1184.71 226.525C1183.38 219.468 1180.88 213.918 1177.19 209.867C1172.17 214.833 1167.71 220.383 1164.1 226.852C1159.64 213.135 1152.82 204.508 1144.81 198.503C1140.29 204.904 1136.38 211.892 1134.43 220.779C1132.06 213.982 1129.27 208.104 1125.87 203.273C1120.5 204.576 1115.77 207.122 1111.72 210.977C1107.69 196.865 1101.07 186.156 1091.95 178.772C1090.91 189.357 1092.02 199.806 1094.8 210.194C1090.91 203.074 1086.66 196.413 1081.43 191.051C1078.03 197.588 1075.87 204.576 1075.59 211.96C1070.15 205.039 1064.17 199.941 1057.77 196.277C1054.7 200.269 1052.4 204.508 1050.66 209.155H1049.41C1046.96 199.61 1043.21 191.706 1038.4 185.106C1033.11 192.489 1029.21 200.269 1026.15 208.24C1028.37 186.348 1026.64 169.818 1022.11 156.948C1014.66 169.882 1008.32 183.803 1005.18 200.201C1002.05 191.311 998.082 184.063 992.933 179.292C989.245 185.501 988.2 193.337 987.845 201.568C981.023 191.571 973.711 184.187 965.775 179.427C963.686 186.868 963.968 195.234 966.534 204.576C959.222 193.009 950.658 184.977 941.123 179.811C939.034 186.868 939.944 194.907 943.493 203.989C930.751 194.839 916.544 189.221 901.088 186.484C890.985 188.573 881.03 190.656 873.094 194.06C871.347 189.357 868.915 185.761 865.427 183.599C852.203 184.322 841.129 186.484 831.104 189.289L754.988 161.843C749.419 163.812 696.776 167.137 691.272 169.103C639.18 161.651 625.185 153.092 580.894 145.381C589.458 157.603 596.011 159.761 608.754 166.55C610.288 163.812 612.095 161.323 613.976 159.038C618.436 163.022 622.259 168.188 625.046 175.176L630.061 177.789C632.284 175.108 634.732 172.699 637.446 170.541C639.955 173.873 641.624 178.185 642.387 183.475C646.773 176.023 652.069 171.456 657.981 168.967C659.026 177.462 658.336 184.582 656.802 191.571C659.026 192.621 661.188 193.868 663.277 195.234L668.01 197.712C666.129 191.379 665.995 185.896 667.664 181.25C674.486 185.953 680.48 192.689 685.421 201.895C683.887 194.771 683.96 188.634 685.767 183.407C691.48 187.658 696.629 193.8 701.223 201.771C701.79 195.754 702.835 190.136 705.822 185.953C709.371 189.944 712.028 195.69 714.043 202.483C716.965 190.723 722.114 181.19 728.112 172.428C730.617 181.318 731.453 192.162 729.785 205.819L731.453 205.887C733.543 201.963 736.052 198.243 739.039 194.715C741.201 198.243 743.078 202.155 744.469 206.474L749.272 209.471C750.316 207.777 751.508 206.214 752.826 204.768C757.493 208.037 761.671 212.355 765.433 217.966C765.923 212.615 767.731 207.709 770.521 203.206C774.132 207.653 776.997 212.999 779.637 218.561C777.968 210.718 777.548 202.946 778.665 195.302C785.071 201.568 789.592 210.062 792.036 220.779C795.17 218.361 798.724 216.991 802.755 216.528C805.052 220.451 806.868 225.03 808.333 230.188C810.14 223.911 813.274 219.208 816.824 214.901C822.462 220.056 827.195 227.112 829.986 237.572C832.908 233.197 836.388 229.533 840.219 226.468C842.802 229.725 844.398 234.044 845.161 239.334C847.743 236.589 851.921 234.756 854.982 235.546C866.679 241.496 887.223 253.515 897.595 265.071C869.332 258.018 837.159 250.371 803.318 242.535L830.537 258.606C736.187 243.845 675.812 222.545 581.461 207.777C540.157 188.438 383.971 168.38 342.68 149.045C389.745 152.049 450.328 162.114 499.078 155.318L433.554 133.43L342.888 120.04C305.84 109.648 280.216 112.193 244.139 111.545C269.355 130.229 302.425 148.977 340.444 167.668C270.534 143.886 221.233 129.773 146.863 114.283C119.493 120.56 75.9693 95.0153 48.6034 101.281C36.8402 97.8205 11.7715 105.464 9.15527e-05 102.004C9.15527e-05 68.3527 9.15527e-05 62.347 9.15527e-05 28.6959C1.04462 22.1027 2.85215 15.566 5.92454 9.23268C11.5634 14.5833 16.5779 21.2555 20.6092 29.4866C21.0988 24.9757 22.278 20.7924 24.3058 16.8801C30.4261 19.4218 36.4852 23.0779 42.3362 28.3118C41.153 22.2947 41.6467 16.5526 43.2421 10.9986C48.6769 14.9786 53.5527 20.1372 58.2123 25.5631C53.8261 17.3998 50.9006 9.03311 49.7214 0.414185C58.8366 5.76477 66.4339 13.8716 72.5624 25.0435C75.2798 21.6396 78.7561 19.2297 83.0077 17.8516C86.7696 21.5153 90.3194 26.0149 93.5917 31.3768C93.5183 24.0607 95.4686 18.1792 97.9779 12.6968C105.914 16.9366 113.364 23.4733 119.778 34.1895C121.582 28.6959 124.226 23.9327 127.506 19.6176C131.329 22.6223 134.537 26.9337 137.042 32.4838C139.551 23.3453 143.937 17.0722 149.65 13.0244C156.68 23.7331 159.948 34.4494 160.993 44.8342L286.903 54.5112C304.24 47.839 320.879 40.7149 346.711 38.8963C349.71 40.5907 351.799 43.3959 353.26 47.1273C360.155 44.3109 368.854 42.4244 377.631 40.6584C390.998 42.5487 403.263 46.8675 414.189 53.9238C411.264 46.7998 410.636 40.3309 412.516 34.7129C420.738 38.6327 428.05 44.966 434.244 54.0481C432.093 46.5964 431.946 39.9355 433.897 33.99C440.719 37.6499 446.986 43.4636 452.772 51.2994C453.192 44.7062 454.163 38.4331 457.431 33.3988C461.891 37.1868 465.159 42.8762 467.815 49.9325C470.802 36.8027 476.441 25.6309 483.128 15.1142C486.825 25.371 488.139 38.5009 485.915 56.0061C488.706 49.605 492.182 43.3281 496.854 37.3901C501.24 42.944 504.582 49.7405 506.524 58.0394C508.132 53.6527 510.433 49.6727 513.493 46.009C519.059 48.8218 524.22 52.7453 528.814 58.2314C529.161 52.2821 531.112 46.732 534.172 41.4379C538.635 45.6212 542.185 50.9153 545.527 56.5332C543.23 48.3021 542.393 39.9355 543.438 31.4446C551.231 37.2546 556.87 45.6212 560.15 56.8608C563.765 53.7205 567.882 51.5592 572.538 50.5199C575.402 54.3079 577.834 58.9431 579.715 64.305C581.596 57.1809 585.072 51.5592 589.042 46.4044C595.938 51.0396 601.724 57.8361 605.485 68.6803C608.68 63.454 612.585 58.9431 617.037 54.9631C620.17 58.0959 622.259 62.539 623.377 68.0929C628.253 59.3384 634.239 53.4607 641.061 49.8648C642.668 58.8866 642.105 66.6545 640.64 74.5016C645.594 75.9964 650.327 77.962 654.713 80.8349C651.714 73.6431 651.086 67.1779 652.967 61.5675C661.188 65.4798 668.5 71.8244 674.694 80.9027C672.605 73.5188 672.47 66.7901 674.351 60.8446C681.169 64.5648 687.436 70.3183 693.226 78.154C693.642 71.5608 694.613 65.2877 697.955 60.3212C702.341 64.0451 705.687 69.7986 708.327 76.7872C711.252 63.6498 716.965 52.4779 723.579 42.029C727.275 52.2181 728.593 65.412 726.365 82.8607C729.156 76.4596 732.706 70.2505 737.366 64.2372C741.691 69.8551 745.032 76.5838 747.048 84.8827C748.647 80.5751 750.945 76.5273 754.017 72.8636C759.509 75.6801 764.67 79.6601 769.265 85.086C769.612 79.197 771.566 73.5866 774.626 68.2962C779.086 72.4683 782.697 77.7624 785.977 83.3803C783.68 75.1492 782.909 66.7901 783.953 58.3557C791.681 64.1129 797.32 72.5361 800.666 83.7079C804.216 80.5751 808.333 78.4853 813.062 77.3746C815.914 81.1625 818.284 85.8014 820.239 91.1596C822.046 84.1033 825.522 78.4853 829.493 73.259C836.388 77.8942 842.174 84.6907 845.936 95.6027C849.131 90.3801 853.101 85.8655 857.487 81.8177C860.62 85.0183 862.709 89.3936 863.827 94.9475C866.753 91.5549 871.555 88.9342 875.244 89.2618C881.584 91.2838 890.149 94.4279 898.787 98.2159C908.742 96.3181 918.633 95.1396 925.736 94.6199C929.425 95.1396 933.603 98.8033 935.827 102.783C938.063 97.6285 940.988 93.9083 944.673 91.5549C948.226 96.4499 951.225 101.676 953.314 107.49C959.161 97.8883 966.265 92.5942 973.993 89.7212C976.845 95.6592 979.215 101.868 979.562 109.196C982.561 104.421 985.829 100.501 989.379 97.4929C993.765 99.5827 997.454 102.659 1000.32 106.447C1005.88 96.3821 1013.06 89.5216 1021.89 85.8014C1021.21 94.2246 1018.76 102.072 1014.87 109.512C1019.25 104.877 1023.85 100.565 1029.07 97.5607C1031.03 103.371 1031.79 109.252 1031.03 115.073C1036.59 110.822 1042.44 108.145 1048.5 106.707C1050.8 110.958 1052.26 115.393 1052.96 119.972C1056.58 112.396 1061.17 106.639 1066.6 102.196C1070.02 109.128 1072.24 115.981 1073.7 122.777C1075.03 105.34 1078.93 92.9218 1084.64 83.9112C1089.1 95.5349 1092.45 107.69 1092.71 121.079C1096.76 114.874 1101.14 110.099 1106.23 107.49C1108.53 113.108 1108.25 119.385 1107.34 125.85C1114.59 119.645 1121.9 115.461 1129.42 113.503C1130.05 119.712 1128.58 126.11 1125.03 132.771C1132.97 125.455 1141.39 121.011 1150.31 119.121C1151.07 125.003 1149.12 131.076 1144.73 137.349C1149.69 135.587 1154.7 134.74 1159.92 134.412C1159.98 126.505 1161.03 118.861 1164.37 110.495C1170.36 115.597 1175.1 122.649 1178.16 132.251C1180.39 127.096 1183.38 123.365 1187.08 121.011C1190.63 125.918 1193.62 131.144 1195.71 136.954C1201.55 127.288 1208.66 122.062 1216.39 119.121C1219.25 125.127 1221.55 131.336 1221.97 138.652C1224.95 133.889 1228.23 129.965 1231.78 126.893C1236.17 129.05 1239.79 132.059 1242.71 135.915C1248.21 125.85 1255.45 118.989 1264.3 115.201C1263.6 123.692 1261.17 131.539 1257.27 138.98C1261.66 134.345 1266.18 130.033 1271.4 126.961C1273.42 132.838 1274.19 138.72 1273.36 144.466C1279 140.29 1284.85 137.613 1290.91 136.175C1293.2 140.418 1294.59 144.861 1295.35 149.44C1298.98 141.853 1303.58 136.107 1309.01 131.664C1312.42 138.596 1314.65 145.381 1316.11 152.245C1317.36 134.796 1321.26 122.39 1326.97 113.368C1331.5 125.003 1334.84 137.15 1335.12 150.547C1339.09 144.338 1343.55 139.567 1348.62 136.954C1350.86 142.576 1350.58 148.853 1349.74 155.318C1356.92 149.112 1364.29 144.929 1371.75 142.971C1372.44 149.112 1370.98 155.577 1367.43 162.238C1375.37 154.922 1383.8 150.479 1392.64 148.521C1393.4 154.459 1391.52 160.544 1387.14 166.817C1399.39 162.434 1412.28 161.131 1425.86 162.374C1434.14 166.094 1442.36 169.95 1448.56 174.193C1450.78 170.993 1453.36 168.707 1456.63 167.792C1470.7 172.111 1481.63 177.402 1491.25 183.012C1499.74 180.93 1507.89 179.484 1514.02 178.58C1517.21 178.772 1520.84 181.318 1523.13 184.518L1524.88 184.255C1526.97 179.811 1529.68 176.419 1532.96 174.065C1534.83 176.543 1536.58 179.1 1538.04 181.837L1548.55 179.947C1552.73 175.436 1557.4 172.303 1562.28 170.146C1563.32 172.371 1564.37 174.589 1565.2 176.938L1571.39 175.831L1576.75 177.661C1577.03 177.402 1577.32 177.074 1577.66 176.814C1579.67 177.661 1581.63 178.704 1583.3 179.947L1590.12 182.3C1595.42 173.286 1602.1 166.817 1610.18 162.762C1609.49 171.196 1607.04 179.168 1603.22 186.868C1607.61 181.973 1612.13 177.402 1617.28 174.001C1619.31 179.755 1620.07 185.501 1619.23 191.379C1624.87 186.743 1630.72 183.667 1636.78 181.777C1639.08 185.896 1640.47 190.204 1641.24 194.715C1644.86 186.935 1649.45 180.794 1654.88 176.023C1658.3 182.628 1660.52 189.289 1661.98 196.085C1663.24 178.512 1667.15 165.767 1672.85 156.361C1677.31 167.668 1680.72 179.552 1680.99 192.953C1684.96 186.484 1689.42 181.385 1694.51 178.445C1696.73 183.859 1696.45 190.204 1695.62 196.741C1702.79 189.944 1710.18 185.241 1717.63 182.752C1718.33 188.893 1716.87 195.426 1713.24 202.358C1721.25 194.455 1729.67 189.424 1738.52 186.811C1739.28 192.689 1737.4 198.887 1733.01 205.491C1737.89 203.401 1742.98 202.155 1748.13 201.511C1748.2 193.54 1749.25 185.828 1752.65 177.266C1758.65 181.905 1763.38 188.573 1766.44 197.983C1768.67 192.689 1771.6 188.701 1775.36 186.088C1778.91 190.723 1781.84 195.754 1783.99 201.443C1789.84 191.379 1796.88 185.569 1804.61 182.097C1807.53 187.85 1809.83 193.924 1810.17 201.24C1813.17 196.217 1816.44 192.034 1820.06 188.765C1824.45 190.599 1828.06 193.337 1830.99 197C1836.49 186.54 1843.73 179.168 1852.51 174.781C1851.88 183.215 1849.38 191.311 1845.48 199.022C1849.86 194.06 1854.46 189.424 1859.68 186.02C1861.64 191.706 1862.47 197.52 1861.64 203.334C1867.28 198.763 1873.13 195.69 1879.11 193.8C1881.41 197.848 1882.87 202.155 1883.57 206.734C1887.19 198.887 1891.85 192.749 1897.21 187.986C1900.63 194.647 1902.85 201.308 1904.32 208.037C1905.64 190.531 1909.54 177.789 1915.25 168.312C1919.71 179.687 1923.06 191.571 1923.32 204.972C1927.37 198.503 1931.75 193.337 1936.84 190.396C1939.14 195.822 1938.86 202.155 1937.95 208.692C1945.2 201.895 1952.51 197.26 1960.03 194.715C1960.72 200.856 1959.2 207.389 1955.64 214.377C1963.58 206.406 1972.08 201.376 1980.92 198.83C1981.68 204.644 1979.73 210.917 1975.42 217.443C1987.61 212.22 2000.56 210.002 2014.06 210.262C2022.42 213.395 2030.57 216.595 2036.84 220.451C2039 217.058 2041.64 214.641 2044.91 213.463C2056.76 216.211 2066.36 219.864 2074.86 223.911C2089.27 224.442 2103.61 225.03 2118.03 225.745C2131.55 226.468 2144.98 227.507 2158.42 228.878C2170.12 224.702 2182.65 221.63 2191.22 219.931C2194.9 219.999 2199.29 223.132 2201.66 226.852C2203.62 221.434 2206.33 217.318 2209.89 214.506C2213.7 218.949 2216.91 223.855 2219.42 229.405C2224.64 219.016 2231.4 212.943 2238.92 209.087C2242.12 214.705 2244.77 220.643 2245.53 227.903C2248.25 222.737 2251.31 218.429 2254.65 214.969C2259.19 216.528 2262.94 219.152 2266.08 222.612C2270.95 211.892 2277.78 204.181 2286.34 199.282C2286.14 207.777 2284.18 216.008 2280.7 223.911C2284.81 218.689 2289.06 213.858 2294.13 210.194C2296.43 215.816 2297.55 221.494 2297.06 227.44C2302.36 222.477 2308.07 219.152 2313.98 216.991C2316.49 220.914 2318.23 225.154 2319.14 229.669C2322.34 221.694 2326.59 215.296 2331.74 210.262C2335.5 216.731 2338.15 223.256 2339.96 229.928C2340.24 212.355 2343.44 199.478 2348.6 189.752C2353.67 200.856 2357.72 212.548 2358.76 225.877C2362.39 219.208 2366.57 213.918 2371.43 210.65C2374.01 216.008 2374.43 229.725 2373.94 236.33C2380.77 229.206 2387.87 227.112 2395.18 224.171C2396.23 230.324 2395.11 236.917 2391.9 244.041C2399.42 235.671 2407.57 230.256 2416.28 227.248C2417.39 233.061 2415.79 239.334 2411.82 246.131C2416.56 243.777 2421.57 242.343 2426.73 241.36C2426.31 233.457 2426.94 225.745 2429.79 216.923C2436.06 221.298 2441.14 227.699 2444.76 236.985C2446.71 231.555 2449.43 227.44 2452.98 224.634C2456.74 229.077 2460.01 233.976 2462.45 239.526C2467.74 229.206 2474.49 223.064 2482.01 219.208C2485.22 224.826 2487.87 230.776 2488.63 238.024C2491.34 232.865 2494 218.165 2497.4 214.705C2501.86 216.335 2505.7 218.881 2508.76 222.409C2513.7 211.633 2520.45 203.921 2529.02 199.09C2528.88 207.585 2526.86 215.748 2523.38 223.652C2527.48 218.429 2531.81 213.587 2536.82 209.934C2539.12 215.556 2540.23 221.298 2539.75 227.18C2545.11 222.285 2550.75 218.949 2556.67 216.731C2559.24 220.711 2560.91 224.962 2561.89 229.405C2565.09 221.434 2569.34 215.093 2574.43 210.002C2578.25 216.471 2580.83 223.064 2582.71 229.725C2582.99 212.152 2586.12 199.218 2591.27 189.481C2596.42 200.596 2600.47 212.288 2601.51 225.677C2605.13 219.016 2609.24 213.655 2614.18 210.454C2616.69 215.748 2616.83 222.089 2616.27 228.682C2623.1 221.562 2630.2 216.471 2637.51 213.587C2638.56 219.672 2637.44 226.333 2634.31 233.389C2641.75 225.09 2649.9 219.672 2658.61 216.663C2659.72 222.409 2658.67 225.09 2654.71 231.883C2666.61 226.073 2679.22 220.056 2692.73 219.604C2701.23 222.353 2709.59 225.154 2716.06 228.682C2718 225.154 2720.51 222.612 2723.72 221.298C2741.48 224.499 2754.36 229.793 2766.05 235.614C2813.55 237.572 2861.04 239.402 2908.05 234.044C2943.98 229.996 2979.63 225.877 3015.15 221.694C3028.1 212.999 3041.68 204.508 3062.7 198.367C3066.05 199.35 3068.83 201.703 3071.2 204.972C3077.26 200.788 3085.2 197.125 3093.35 193.54C3106.78 192.557 3119.88 194.184 3132.41 198.695C3127.6 192.422 3125.38 186.28 3125.73 180.399C3134.78 182.492 3143.48 187.071 3151.91 194.579C3147.94 187.85 3146.06 181.385 3146.41 175.244C3153.99 177.334 3161.59 181.645 3169.25 187.986C3167.92 181.517 3167.3 175.244 3169.25 169.69C3174.47 172.371 3179.21 177.266 3183.59 183.543C3183.1 170.146 3185.75 158.055 3189.51 146.499C3195.78 155.645 3200.44 168.188 3202.74 185.569C3203.79 178.772 3205.67 171.976 3208.66 165.179C3214.37 169.69 3219.31 175.572 3223.42 183.148C3223.84 178.637 3225.02 174.261 3227.11 170.018C3233.24 171.58 3239.23 174.329 3245.15 178.704C3243.97 172.891 3244.38 167.077 3246.06 161.256C3251.49 164.332 3256.29 168.775 3260.96 173.478C3256.64 165.962 3253.71 158.055 3252.53 149.632C3261.58 153.612 3269.24 160.544 3275.37 170.733C3278.02 166.945 3281.5 164.004 3285.82 161.911C3289.58 165.055 3293.06 169.035 3296.33 173.806C3296.33 166.55 3298.28 160.352 3300.79 154.459C3308.73 157.535 3316.11 162.894 3322.52 172.631C3324.33 166.945 3326.97 161.719 3330.24 156.88C3334.14 159.301 3337.35 163.157 3339.86 168.312C3342.36 158.71 3346.68 151.85 3352.39 146.883C3356.29 155.25 3357.75 162.961 3358.31 170.869C3363.53 171.253 3368.68 172.168 3373.63 174.001C3368.89 167.668 3366.59 161.583 3367.01 155.706C3376.06 157.795 3384.77 162.374 3393.19 169.882C3389.23 163.157 3387.35 156.688 3387.69 150.547C3395.28 152.641 3402.87 156.948 3410.53 163.289C3409.21 156.824 3408.58 150.547 3410.53 144.997C3415.76 147.674 3420.49 152.573 3424.88 158.846C3424.39 145.449 3426.97 133.362 3430.8 121.802C3437.06 130.952 3441.73 143.491 3444.03 160.872C3445.07 154.075 3446.95 147.279 3449.95 140.482C3455.59 144.997 3460.6 150.875 3464.71 158.45C3465.13 153.94 3466.31 149.564 3468.33 145.324C3474.53 146.883 3480.52 149.632 3486.44 154.007C3485.25 148.194 3485.67 142.384 3487.34 136.562C3492.7 139.635 3497.58 144.078 3502.24 148.785C3497.93 141.265 3494.93 133.362 3493.82 124.935C3502.87 128.858 3510.53 135.847 3516.66 146.036C3519.3 142.248 3522.79 139.307 3527.1 137.218C3530.86 140.358 3534.35 144.338 3537.62 149.112C3537.62 141.853 3539.5 135.655 3542.07 129.773C3550.01 132.838 3557.4 138.2 3563.8 147.934C3565.61 142.18 3568.26 137.022 3571.53 132.183C3575.43 134.604 3578.56 138.46 3581.14 143.615C3583.09 139.635 3587.06 136.107 3590.75 135.655C3602.1 136.694 3620.41 139.443 3635.11 144.146C3651.82 142.056 3668.6 139.963 3685.38 137.873C3695.2 131.923 3706.34 126.373 3721.32 122.062C3724.66 123.037 3727.44 125.33 3729.81 128.599C3735.8 124.415 3743.81 120.819 3751.89 117.223C3765.4 116.252 3778.49 117.811 3790.95 122.39C3786.22 116.049 3783.92 109.975 3784.34 104.094C3793.39 106.187 3802.09 110.755 3810.52 118.274C3806.55 111.477 3804.67 105.08 3804.95 98.871C3812.61 101.021 3820.2 105.272 3827.79 111.673C3826.53 105.204 3825.91 98.9275 3827.79 93.3774C3833.08 96.0545 3837.82 100.897 3842.2 107.162C3841.65 93.7727 3844.29 81.7499 3848.05 70.1827C3854.32 79.3325 3858.99 91.8147 3861.35 109.252C3862.4 102.456 3864.21 95.6592 3867.27 88.874C3872.91 93.3774 3877.93 99.2551 3881.97 106.842C3882.45 102.264 3883.64 97.8883 3885.66 93.705C3891.78 95.2751 3897.84 98.0238 3903.76 102.331C3902.58 96.5177 3903 90.6964 3904.6 84.8827C3910.03 88.0268 3914.9 92.4021 3919.57 97.1653C3915.18 89.6572 3912.26 81.7499 3911.07 73.3268C3920.2 77.239 3927.78 84.2275 3933.91 94.3601C3936.63 90.5722 3940.11 87.6314 3944.36 85.6056C3948.12 88.6707 3951.67 92.6619 3954.94 97.4929C3954.87 90.2446 3956.82 84.0355 3959.4 78.154C3967.27 81.2303 3974.72 86.5809 3981.12 96.3181C3982.94 90.5722 3985.58 85.4061 3988.86 80.5751C3992.75 82.9962 3995.89 86.7842 3998.4 91.939C4000.97 82.4051 4005.29 75.4768 4011 70.5103C4011 92.3344 4011 114.091 4011 135.915C3979.73 142.576 3958.77 133.362 3927.51 140.087C3866.3 153.228 3813.86 155.25 3752.65 168.38C3686.85 167.928 3601.82 194.455 3535.95 193.992L3435.32 217.386L3416.59 218.621L3385.67 221.434H3364.64L3339.23 225.222L3351.76 220.056L3372.72 209.675L3404.06 206.93L3373.14 204.124L3341.04 213.463H3323.77L3305.87 223.855L3273.28 229.01L3286.86 223.855L3246.75 227.835L3215.76 226.796L3207.69 227.959L3171.54 232.801H3170.43L3146.47 238.679L3177.05 237.312H3205.46L3208.03 239.402L3219.45 244.561H3220.57L3241.18 244.233H3278.78L3251.9 251.489L3289.44 252.86L3312.28 256.715H3313.39L3352.46 253.255H3353.92L3391.66 251.421L3325.23 265.861L3271.89 287.877L3227.95 290.558L3241.95 279.838H3239.72L3171.2 281.932L3190.35 276.378C3184.85 276.05 3181.01 276.05 3175.58 276.05L3125.1 277.749L3104.49 294.734L3090 296.304L3054 304.603C3052.54 304.603 2993.9 301.143 2992.44 301.143C2972.81 307.612 2986.66 320.286 2944.95 332.241C3055.46 339.294 3009.29 332.106 3128.44 333.608C3074.19 342.426 2974.55 352.887 2971.06 354.709C2863.27 375.878 2787.65 372.154 2678.1 359.943C2763.2 344.655 2848.64 362.228 2903.66 341.907C2867.79 337.136 2874.48 321.781 2754.77 337.791L2669.61 332.761C2669.69 338.706 2666.48 343.74 2660.08 347.72C2669.69 346.282 2675.81 349.358 2679.09 356.211C2668.99 352.819 2659.79 352.943 2651.23 355.624C2646.56 352.887 2640.29 350.729 2632.63 349.223C2619.97 348.568 2607.99 350.989 2596.29 355.172C2600.6 345.299 2608.12 341.387 2619.61 344.52C2618.51 339.034 2617.94 334.128 2617.8 329.696L2614.74 329.492C2575.95 323.023 2537.17 316.555 2498.31 310.157C2410.36 312.902 2322.41 315.64 2234.46 318.456Z" fill="white"/>
</mask>
<g mask="url(#mask3_1_1416)">
<path d="M4011 517.46H9.15527e-05V0.414185H4011V517.46Z" fill="url(#paint1_linear_1_1416)"/>
</g>
</g>
<mask id="mask4_1_1416" style="mask-type:luminance" maskUnits="userSpaceOnUse" x="1444" y="220" width="1572" height="375">
<path d="M3015.56 220.741H1444.59V594.748H3015.56V220.741Z" fill="white"/>
</mask>
<g mask="url(#mask4_1_1416)">
<mask id="mask5_1_1416" style="mask-type:luminance" maskUnits="userSpaceOnUse" x="1445" y="221" width="1571" height="374">
<path fill-rule="evenodd" clip-rule="evenodd" d="M3015.15 221.694C2920.3 241.948 2843.63 271.28 2782.14 308.131C2627.34 334.918 2426.79 339.489 2226.52 344.125C2126.8 363.799 2050 386.99 2023.05 417.76C2305.15 469.052 2522.62 528.699 2690.79 594.748C2358.14 594.748 2025.55 594.748 1692.9 594.748C1626.96 498.768 1546.88 419.127 1445.56 363.731C1599.67 350.334 1773.61 336.876 2005.5 323.091C2243.73 322.504 2469.69 311.072 2682.28 287.945C2719.33 271.675 2749.62 254.554 2766.05 235.614C2844.54 234.372 2926.85 230.324 3015.15 221.694Z" fill="white"/>
</mask>
<g mask="url(#mask5_1_1416)">
<path d="M3015.15 594.748H1445.56V221.694H3015.15V594.748Z" fill="url(#paint2_linear_1_1416)"/>
</g>
</g>
<mask id="mask6_1_1416" style="mask-type:luminance" maskUnits="userSpaceOnUse" x="1444" y="261" width="1425" height="334">
<path d="M2868.28 261.226H1444.59V594.748H2868.28V261.226Z" fill="white"/>
</mask>
<g mask="url(#mask6_1_1416)">
<mask id="mask7_1_1416" style="mask-type:luminance" maskUnits="userSpaceOnUse" x="1445" y="261" width="1423" height="334">
<path fill-rule="evenodd" clip-rule="evenodd" d="M2867.73 265.861C2836.39 278.528 2807.91 292.708 2782.14 308.131C2700.32 322.312 2605.69 330.283 2505.07 335.306L2070.26 333.224L1971.45 366.412L1591.16 392.668L1822.63 406.52L1741.52 432.788L2062.95 425.144C2183.2 447.815 2291.29 472.117 2388.5 497.729L1949.38 565.54L2413.63 564.173L2138.78 594.748H1692.9C1679.4 575.149 1665.33 556.201 1650.64 537.973L1856.47 510.211L1631.22 514.914C1578.29 454.284 1517.21 402.925 1445.56 363.731C1599.67 350.334 1773.61 336.876 2005.5 323.091C2105.15 322.831 2202.63 320.674 2297.97 316.555L2450.54 323.543L2618.57 312.439L2518.78 303.225C2574.14 298.85 2628.6 293.759 2682.28 287.945C2701.44 279.511 2718.78 270.896 2733.33 261.938L2867.73 265.861Z" fill="white"/>
</mask>
<g mask="url(#mask7_1_1416)">
<path d="M2867.73 594.748H1445.56V261.938H2867.73V594.748Z" fill="url(#paint3_linear_1_1416)"/>
</g>
</g>
<defs>
<linearGradient id="paint0_linear_1_1416" x1="2005.5" y1="594.748" x2="2005.5" y2="41.5747" gradientUnits="userSpaceOnUse">
<stop stop-color="#6EBB2E"/>
<stop offset="0.0625" stop-color="#6EBB2E"/>
<stop offset="0.078125" stop-color="#6EBB2E"/>
<stop offset="0.09375" stop-color="#6EBB2E"/>
<stop offset="0.125" stop-color="#6FBB2E"/>
<stop offset="0.140625" stop-color="#6FBB2E"/>
<stop offset="0.15625" stop-color="#6FBB2E"/>
<stop offset="0.1875" stop-color="#70BB2E"/>
<stop offset="0.21875" stop-color="#70BB2E"/>
<stop offset="0.234375" stop-color="#70BB2E"/>
<stop offset="0.25" stop-color="#70BB2E"/>
<stop offset="0.3125" stop-color="#71BB2D"/>
<stop offset="0.328125" stop-color="#71BB2D"/>
<stop offset="0.34375" stop-color="#71BC2D"/>
<stop offset="0.375" stop-color="#71BC2D"/>
<stop offset="0.4375" stop-color="#72BC2D"/>
<stop offset="0.5" stop-color="#72BC2D"/>
<stop offset="0.515625" stop-color="#73BD2D"/>
<stop offset="0.53125" stop-color="#73BD2D"/>
<stop offset="0.5625" stop-color="#74BD2C"/>
<stop offset="0.59375" stop-color="#74BD2C"/>
<stop offset="0.625" stop-color="#74BD2C"/>
<stop offset="0.65625" stop-color="#75BD2C"/>
<stop offset="0.671875" stop-color="#75BD2C"/>
<stop offset="0.6875" stop-color="#75BD2C"/>
<stop offset="0.75" stop-color="#76BD2C"/>
<stop offset="0.765625" stop-color="#75BD2C"/>
<stop offset="0.78125" stop-color="#76BE2C"/>
<stop offset="0.8125" stop-color="#76BE2C"/>
<stop offset="0.875" stop-color="#76BE2C"/>
<stop offset="0.9375" stop-color="#77BE2B"/>
<stop offset="0.953125" stop-color="#77BF2B"/>
<stop offset="0.96875" stop-color="#78BE2B"/>
<stop offset="1" stop-color="#78BE2B"/>
</linearGradient>
<linearGradient id="paint1_linear_1_1416" x1="2005.5" y1="517.459" x2="2005.5" y2="0.414246" gradientUnits="userSpaceOnUse">
<stop stop-color="#CCE431"/>
<stop offset="0.015625" stop-color="#CCE532"/>
<stop offset="0.03125" stop-color="#CDE532"/>
<stop offset="0.046875" stop-color="#CDE533"/>
<stop offset="0.0625" stop-color="#CDE534"/>
<stop offset="0.078125" stop-color="#CEE535"/>
<stop offset="0.09375" stop-color="#CEE536"/>
<stop offset="0.125" stop-color="#CFE636"/>
<stop offset="0.132812" stop-color="#CFE637"/>
<stop offset="0.140625" stop-color="#D0E638"/>
<stop offset="0.148438" stop-color="#D0E639"/>
<stop offset="0.15625" stop-color="#D0E639"/>
<stop offset="0.1875" stop-color="#D0E63A"/>
<stop offset="0.203125" stop-color="#D1E63B"/>
<stop offset="0.21875" stop-color="#D1E73B"/>
<stop offset="0.234375" stop-color="#D1E73C"/>
<stop offset="0.25" stop-color="#D2E73C"/>
<stop offset="0.265625" stop-color="#D2E73D"/>
<stop offset="0.28125" stop-color="#D2E73E"/>
<stop offset="0.296875" stop-color="#D3E73E"/>
<stop offset="0.3125" stop-color="#D3E73E"/>
<stop offset="0.328125" stop-color="#D4E83F"/>
<stop offset="0.34375" stop-color="#D4E83F"/>
<stop offset="0.359375" stop-color="#D5E840"/>
<stop offset="0.375" stop-color="#D5E841"/>
<stop offset="0.390625" stop-color="#D5E841"/>
<stop offset="0.40625" stop-color="#D6E842"/>
<stop offset="0.421875" stop-color="#D6E842"/>
<stop offset="0.4375" stop-color="#D6E943"/>
<stop offset="0.453125" stop-color="#D7E944"/>
<stop offset="0.46875" stop-color="#D7E945"/>
<stop offset="0.484375" stop-color="#D7E946"/>
<stop offset="0.5" stop-color="#D8E946"/>
<stop offset="0.515625" stop-color="#D9EA47"/>
<stop offset="0.53125" stop-color="#D9EA47"/>
<stop offset="0.546875" stop-color="#D9EA48"/>
<stop offset="0.5625" stop-color="#DAEA49"/>
<stop offset="0.578125" stop-color="#DAEA49"/>
<stop offset="0.59375" stop-color="#DBEA4A"/>
<stop offset="0.609375" stop-color="#DBEB4B"/>
<stop offset="0.625" stop-color="#DCEB4B"/>
<stop offset="0.640625" stop-color="#DCEB4C"/>
<stop offset="0.65625" stop-color="#DDEB4D"/>
<stop offset="0.671875" stop-color="#DEEB4E"/>
<stop offset="0.6875" stop-color="#DEEC4F"/>
<stop offset="0.703125" stop-color="#DEEC50"/>
<stop offset="0.71875" stop-color="#DFEC50"/>
<stop offset="0.734375" stop-color="#DFEC51"/>
<stop offset="0.75" stop-color="#DFEC52"/>
<stop offset="0.765625" stop-color="#E0EC53"/>
<stop offset="0.78125" stop-color="#E0ED54"/>
<stop offset="0.796875" stop-color="#E1ED55"/>
<stop offset="0.8125" stop-color="#E1ED56"/>
<stop offset="0.828125" stop-color="#E2ED56"/>
<stop offset="0.84375" stop-color="#E2ED57"/>
<stop offset="0.859375" stop-color="#E3ED58"/>
<stop offset="0.875" stop-color="#E3EE58"/>
<stop offset="0.890625" stop-color="#E3EE58"/>
<stop offset="0.90625" stop-color="#E4EE59"/>
<stop offset="0.921875" stop-color="#E4EE59"/>
<stop offset="0.9375" stop-color="#E4EE5A"/>
<stop offset="0.945312" stop-color="#E4EE5A"/>
<stop offset="0.953125" stop-color="#E5EE5B"/>
<stop offset="0.960938" stop-color="#E5EE5B"/>
<stop offset="0.96875" stop-color="#E5EE5C"/>
<stop offset="0.984375" stop-color="#E5EF5D"/>
<stop offset="1" stop-color="#E6EF5D"/>
</linearGradient>
<linearGradient id="paint2_linear_1_1416" x1="2230.36" y1="594.748" x2="2230.36" y2="221.695" gradientUnits="userSpaceOnUse">
<stop stop-color="#F9A76C"/>
<stop offset="0.015625" stop-color="#F9A76C"/>
<stop offset="0.03125" stop-color="#F9A86C"/>
<stop offset="0.0390625" stop-color="#F9A96D"/>
<stop offset="0.046875" stop-color="#F9AA6C"/>
<stop offset="0.0546875" stop-color="#F9AB6C"/>
<stop offset="0.0625" stop-color="#F9AB6C"/>
<stop offset="0.09375" stop-color="#F9AC6D"/>
<stop offset="0.109375" stop-color="#F9AD6D"/>
<stop offset="0.125" stop-color="#F9AD6D"/>
<stop offset="0.140625" stop-color="#F9AE6D"/>
<stop offset="0.15625" stop-color="#F9AF6D"/>
<stop offset="0.171875" stop-color="#F9B06D"/>
<stop offset="0.1875" stop-color="#F9B16D"/>
<stop offset="0.195312" stop-color="#F9B26D"/>
<stop offset="0.203125" stop-color="#FAB36E"/>
<stop offset="0.210938" stop-color="#FAB36E"/>
<stop offset="0.21875" stop-color="#FAB46E"/>
<stop offset="0.234375" stop-color="#FAB56E"/>
<stop offset="0.25" stop-color="#FAB66E"/>
<stop offset="0.265625" stop-color="#FAB66E"/>
<stop offset="0.28125" stop-color="#FAB76F"/>
<stop offset="0.296875" stop-color="#FAB86F"/>
<stop offset="0.3125" stop-color="#FAB96F"/>
<stop offset="0.328125" stop-color="#FABA70"/>
<stop offset="0.34375" stop-color="#FABB70"/>
<stop offset="0.359375" stop-color="#FABC70"/>
<stop offset="0.375" stop-color="#FABD6F"/>
<stop offset="0.382812" stop-color="#FABD6F"/>
<stop offset="0.390625" stop-color="#FABE6F"/>
<stop offset="0.398438" stop-color="#FABF6F"/>
<stop offset="0.40625" stop-color="#FBC070"/>
<stop offset="0.421875" stop-color="#FBC070"/>
<stop offset="0.4375" stop-color="#FBC170"/>
<stop offset="0.453125" stop-color="#FBC270"/>
<stop offset="0.46875" stop-color="#FBC370"/>
<stop offset="0.484375" stop-color="#FBC470"/>
<stop offset="0.5" stop-color="#FBC570"/>
<stop offset="0.515625" stop-color="#FBC570"/>
<stop offset="0.53125" stop-color="#FBC670"/>
<stop offset="0.546875" stop-color="#FBC771"/>
<stop offset="0.5625" stop-color="#FBC871"/>
<stop offset="0.578125" stop-color="#FBC871"/>
<stop offset="0.59375" stop-color="#FBC971"/>
<stop offset="0.609375" stop-color="#FBCA71"/>
<stop offset="0.625" stop-color="#FBCB71"/>
<stop offset="0.640625" stop-color="#FCCC71"/>
<stop offset="0.65625" stop-color="#FCCD72"/>
<stop offset="0.671875" stop-color="#FCCE72"/>
<stop offset="0.6875" stop-color="#FCCF72"/>
<stop offset="0.703125" stop-color="#FCD072"/>
<stop offset="0.71875" stop-color="#FCD172"/>
<stop offset="0.734375" stop-color="#FCD172"/>
<stop offset="0.75" stop-color="#FCD271"/>
<stop offset="0.757812" stop-color="#FCD372"/>
<stop offset="0.765625" stop-color="#FCD472"/>
<stop offset="0.773438" stop-color="#FCD472"/>
<stop offset="0.78125" stop-color="#FCD572"/>
<stop offset="0.796875" stop-color="#FCD672"/>
<stop offset="0.8125" stop-color="#FCD672"/>
<stop offset="0.820313" stop-color="#FCD772"/>
<stop offset="0.828125" stop-color="#FCD872"/>
<stop offset="0.84375" stop-color="#FCD872"/>
<stop offset="0.859375" stop-color="#FCD973"/>
<stop offset="0.875" stop-color="#FCDA73"/>
<stop offset="0.890625" stop-color="#FCDB73"/>
<stop offset="0.90625" stop-color="#FCDC73"/>
<stop offset="0.921875" stop-color="#FBDD72"/>
<stop offset="0.9375" stop-color="#FBDE72"/>
<stop offset="0.953125" stop-color="#FBDE72"/>
<stop offset="0.96875" stop-color="#FBDF72"/>
<stop offset="0.976562" stop-color="#FBE072"/>
<stop offset="0.984375" stop-color="#FBE072"/>
<stop offset="0.992188" stop-color="#FBE172"/>
<stop offset="1" stop-color="#FBE272"/>
</linearGradient>
<linearGradient id="paint3_linear_1_1416" x1="2156.64" y1="594.748" x2="2156.64" y2="261.94" gradientUnits="userSpaceOnUse">
<stop stop-color="#F68951"/>
<stop offset="0.015625" stop-color="#F68A51"/>
<stop offset="0.03125" stop-color="#F68B51"/>
<stop offset="0.046875" stop-color="#F68B52"/>
<stop offset="0.0546875" stop-color="#F68C52"/>
<stop offset="0.0625" stop-color="#F78D52"/>
<stop offset="0.0703125" stop-color="#F78E52"/>
<stop offset="0.078125" stop-color="#F78E52"/>
<stop offset="0.0859375" stop-color="#F78F52"/>
<stop offset="0.09375" stop-color="#F79052"/>
<stop offset="0.101562" stop-color="#F79152"/>
<stop offset="0.109375" stop-color="#F69152"/>
<stop offset="0.125" stop-color="#F69252"/>
<stop offset="0.140625" stop-color="#F69253"/>
<stop offset="0.15625" stop-color="#F69353"/>
<stop offset="0.164063" stop-color="#F69453"/>
<stop offset="0.171875" stop-color="#F69553"/>
<stop offset="0.179688" stop-color="#F69654"/>
<stop offset="0.1875" stop-color="#F69654"/>
<stop offset="0.203125" stop-color="#F69754"/>
<stop offset="0.21875" stop-color="#F69854"/>
<stop offset="0.226563" stop-color="#F69855"/>
<stop offset="0.234375" stop-color="#F69955"/>
<stop offset="0.242188" stop-color="#F69A55"/>
<stop offset="0.25" stop-color="#F69A55"/>
<stop offset="0.265625" stop-color="#F69B55"/>
<stop offset="0.273438" stop-color="#F69C56"/>
<stop offset="0.28125" stop-color="#F69D56"/>
<stop offset="0.289062" stop-color="#F69D56"/>
<stop offset="0.296875" stop-color="#F69E56"/>
<stop offset="0.3125" stop-color="#F59F56"/>
<stop offset="0.328125" stop-color="#F59F56"/>
<stop offset="0.335938" stop-color="#F5A056"/>
<stop offset="0.34375" stop-color="#F5A156"/>
<stop offset="0.351562" stop-color="#F6A256"/>
<stop offset="0.359375" stop-color="#F6A257"/>
<stop offset="0.375" stop-color="#F6A357"/>
<stop offset="0.390625" stop-color="#F5A457"/>
<stop offset="0.40625" stop-color="#F5A558"/>
<stop offset="0.421875" stop-color="#F5A558"/>
<stop offset="0.429687" stop-color="#F5A658"/>
<stop offset="0.4375" stop-color="#F5A759"/>
<stop offset="0.445313" stop-color="#F5A859"/>
<stop offset="0.453125" stop-color="#F5A859"/>
<stop offset="0.460938" stop-color="#F5A959"/>
<stop offset="0.46875" stop-color="#F5A95A"/>
<stop offset="0.476562" stop-color="#F5AA5A"/>
<stop offset="0.484375" stop-color="#F5AB5A"/>
<stop offset="0.5" stop-color="#F5AC5A"/>
<stop offset="0.515625" stop-color="#F5AC5A"/>
<stop offset="0.53125" stop-color="#F6AD5B"/>
<stop offset="0.546875" stop-color="#F6AE5B"/>
<stop offset="0.5625" stop-color="#F6AF5B"/>
<stop offset="0.570312" stop-color="#F6B05B"/>
<stop offset="0.578125" stop-color="#F6B05B"/>
<stop offset="0.585937" stop-color="#F5B15B"/>
<stop offset="0.59375" stop-color="#F5B25B"/>
<stop offset="0.609375" stop-color="#F5B25B"/>
<stop offset="0.617187" stop-color="#F5B35B"/>
<stop offset="0.625" stop-color="#F5B45C"/>
<stop offset="0.632813" stop-color="#F5B55C"/>
<stop offset="0.640625" stop-color="#F5B55C"/>
<stop offset="0.65625" stop-color="#F5B65C"/>
<stop offset="0.671875" stop-color="#F5B75D"/>
<stop offset="0.679688" stop-color="#F5B85D"/>
<stop offset="0.6875" stop-color="#F5B85D"/>
<stop offset="0.695312" stop-color="#F5B95D"/>
<stop offset="0.703125" stop-color="#F6BA5D"/>
<stop offset="0.71875" stop-color="#F5BA5D"/>
<stop offset="0.734375" stop-color="#F5BB5D"/>
<stop offset="0.742188" stop-color="#F5BC5E"/>
<stop offset="0.75" stop-color="#F5BC5E"/>
<stop offset="0.757812" stop-color="#F5BD5F"/>
<stop offset="0.765625" stop-color="#F5BE5F"/>
<stop offset="0.78125" stop-color="#F6BF60"/>
<stop offset="0.789062" stop-color="#F6BF60"/>
<stop offset="0.796875" stop-color="#F6C060"/>
<stop offset="0.804688" stop-color="#F6C160"/>
<stop offset="0.8125" stop-color="#F6C260"/>
<stop offset="0.828125" stop-color="#F6C260"/>
<stop offset="0.84375" stop-color="#F6C361"/>
<stop offset="0.859375" stop-color="#F6C461"/>
<stop offset="0.867187" stop-color="#F6C561"/>
<stop offset="0.875" stop-color="#F6C562"/>
<stop offset="0.882813" stop-color="#F6C662"/>
<stop offset="0.890625" stop-color="#F6C762"/>
<stop offset="0.90625" stop-color="#F6C862"/>
<stop offset="0.914063" stop-color="#F6C862"/>
<stop offset="0.921875" stop-color="#F6C963"/>
<stop offset="0.929688" stop-color="#F5C963"/>
<stop offset="0.9375" stop-color="#F5CA63"/>
<stop offset="0.953125" stop-color="#F5CB63"/>
<stop offset="0.96875" stop-color="#F5CC63"/>
<stop offset="0.976562" stop-color="#F5CC64"/>
<stop offset="0.984375" stop-color="#F5CD64"/>
<stop offset="0.992188" stop-color="#F5CD64"/>
<stop offset="1" stop-color="#F5CE64"/>
</linearGradient>
</defs>
</svg>
