<svg width="211" height="91" viewBox="0 0 211 91" fill="none" xmlns="http://www.w3.org/2000/svg">
<path d="M21.8839 71.5814L86.5466 49.1642C94.3839 49.9892 100.092 53.5309 102.564 61.1986C104.756 53.8372 110.488 50.0694 118.88 49.0001L180.861 69.0282C187.671 74.1345 182.224 87.9788 174.733 87.9788H24.9479C19.1599 87.9788 17.3719 76.0918 21.8839 71.5814Z" fill="#AF524B"/>
<path d="M136.171 68.284C124.705 64.1585 114.804 58.7976 107.716 53.2773C105.317 55.2268 103.566 57.832 102.564 61.1986C101.548 58.0481 99.9775 55.6044 97.9468 53.7481C94.9895 61.6361 74.3855 71.0616 48.3508 75.9173C37.8242 77.8814 27.8601 78.8241 19.3468 78.8402C19.3055 83.3949 21.3535 87.9788 24.9482 87.9788H174.733C180.92 87.9788 185.704 78.5388 183.349 72.3746C174.573 76.7309 155.989 75.4121 136.171 68.284Z" fill="#873331"/>
<path d="M108.692 81.284L102.564 61.1987L130.139 82.6455C130.139 82.6455 122.989 77.5388 108.692 81.284Z" fill="#AF524B"/>
<path d="M30.6825 78.2252C28.3945 73.3455 24.0039 70.5773 20.8772 72.0455C17.7479 73.5121 17.0652 78.6559 19.3532 83.5361C21.6412 88.4159 26.0319 91.184 29.1612 89.7173C32.2892 88.2492 32.9705 83.1055 30.6825 78.2252Z" fill="#682121"/>
<path d="M183.49 81.5453C185.991 75.948 185.176 70.3975 181.671 69.1464C178.165 67.8959 173.296 71.4199 170.795 77.0172C168.294 82.6147 169.108 88.1652 172.613 89.4157C176.117 90.6667 180.988 87.1428 183.49 81.5453Z" fill="#682121"/>
<path d="M22.3931 -4.34477e-05C21.0451 -4.34477e-05 19.9398 1.07343 19.8998 2.42236L17.3345 90.2693H22.3265L24.8891 2.56769C24.9304 1.16249 23.8011 -4.34477e-05 22.3931 -4.34477e-05Z" fill="#281418"/>
<path d="M54.8479 -4.34477e-05C53.4986 -4.34477e-05 52.3933 1.07343 52.3533 2.42236L49.7866 90.2693H54.7813L57.3426 2.56769C57.3839 1.16249 56.2546 -4.34477e-05 54.8479 -4.34477e-05Z" fill="#281418"/>
<path d="M87.3025 -4.34477e-05C85.9519 -4.34477e-05 84.8465 1.07343 84.8079 2.42236L82.2412 90.2693H87.2346L89.7959 2.56769C89.8386 1.16249 88.7092 -4.34477e-05 87.3025 -4.34477e-05Z" fill="#281418"/>
<path d="M119.756 -4.34477e-05C118.406 -4.34477e-05 117.301 1.07343 117.262 2.42236L114.696 90.2693H119.688L122.25 2.56769C122.29 1.16249 121.164 -4.34477e-05 119.756 -4.34477e-05Z" fill="#281418"/>
<path d="M152.211 -4.34477e-05C150.86 -4.34477e-05 149.755 1.07343 149.716 2.42236L147.149 90.2693H152.143L154.704 2.56769C154.745 1.16249 153.616 -4.34477e-05 152.211 -4.34477e-05Z" fill="#281418"/>
<path d="M184.664 -4.34477e-05C183.315 -4.34477e-05 182.209 1.07343 182.171 2.42236L179.604 90.2693H184.596L187.159 2.56769C187.2 1.16249 186.071 -4.34477e-05 184.664 -4.34477e-05Z" fill="#281418"/>
<path d="M206.511 27.7505H5.49053L5.38916 32.8521H206.411L206.511 27.7505Z" fill="#281418"/>
<path d="M22.2694 30.3828C22.2694 29.4104 21.7108 28.6239 21.0201 28.6239C20.3321 28.6239 19.7734 29.4104 19.7734 30.3828C19.7734 31.3531 20.3321 32.1411 21.0201 32.1411C21.7108 32.1411 22.2694 31.3531 22.2694 30.3828Z" fill="#AF524B"/>
<path d="M55.2049 30.3828C55.2049 29.4104 54.6463 28.6239 53.9556 28.6239C53.2676 28.6239 52.709 29.4104 52.709 30.3828C52.709 31.3531 53.2676 32.1411 53.9556 32.1411C54.6463 32.1411 55.2049 31.3531 55.2049 30.3828Z" fill="#AF524B"/>
<path d="M87.2889 30.3828C87.2889 29.4104 86.7303 28.6239 86.0423 28.6239C85.3517 28.6239 84.793 29.4104 84.793 30.3828C84.793 31.3531 85.3517 32.1411 86.0423 32.1411C86.7303 32.1411 87.2889 31.3531 87.2889 30.3828Z" fill="#AF524B"/>
<path d="M119.489 30.3828C119.489 29.4104 118.93 28.6239 118.24 28.6239C117.552 28.6239 116.992 29.4104 116.992 30.3828C116.992 31.3531 117.552 32.1411 118.24 32.1411C118.93 32.1411 119.489 31.3531 119.489 30.3828Z" fill="#AF524B"/>
<path d="M152.595 30.3828C152.595 29.4104 152.036 28.6239 151.347 28.6239C150.657 28.6239 150.099 29.4104 150.099 30.3828C150.099 31.3531 150.657 32.1411 151.347 32.1411C152.036 32.1411 152.595 31.3531 152.595 30.3828Z" fill="#AF524B"/>
<path d="M184.736 30.3828C184.736 29.4104 184.177 28.6239 183.489 28.6239C182.798 28.6239 182.24 29.4104 182.24 30.3828C182.24 31.3531 182.798 32.1411 183.489 32.1411C184.177 32.1411 184.736 31.3531 184.736 30.3828Z" fill="#AF524B"/>
<path d="M5.9 23.4318H0.569336L0 37.7307H5.32936L5.9 23.4318Z" fill="#281418"/>
<path d="M210.269 23.4318H204.94L205.504 37.7307H210.833L210.269 23.4318Z" fill="#281418"/>
</svg>
